<svg width="299" height="102" viewBox="0 0 299 102" fill="none" xmlns="http://www.w3.org/2000/svg">
<path d="M147.24 59.8H153.72C156.768 59.8 159.024 60.496 160.488 61.888C161.976 63.28 162.72 65.344 162.72 68.08C162.72 70.816 161.976 72.88 160.488 74.272C159.024 75.664 156.768 76.36 153.72 76.36H150.84V85H147.24V59.8ZM153.72 73.84C155.544 73.84 156.9 73.372 157.788 72.436C158.676 71.5 159.12 70.048 159.12 68.08C159.12 66.112 158.676 64.66 157.788 63.724C156.9 62.788 155.544 62.32 153.72 62.32H150.84V73.84H153.72ZM174.075 85.36C171.579 85.36 169.635 84.568 168.243 82.984C166.851 81.4 166.155 79.072 166.155 76C166.155 72.952 166.827 70.636 168.171 69.052C169.515 67.444 171.303 66.64 173.535 66.64C175.767 66.64 177.555 67.444 178.899 69.052C180.243 70.636 180.915 72.952 180.915 76V76.54L180.195 77.26H169.755C169.755 79.108 170.163 80.5 170.979 81.436C171.795 82.372 172.947 82.84 174.435 82.84C175.323 82.84 176.247 82.576 177.207 82.048C177.711 81.76 178.107 81.484 178.395 81.22H178.755L180.015 83.38C179.583 83.74 179.043 84.076 178.395 84.388C177.147 85.036 175.707 85.36 174.075 85.36ZM177.315 74.74C177.315 72.844 176.967 71.44 176.271 70.528C175.599 69.616 174.687 69.16 173.535 69.16C172.383 69.16 171.459 69.616 170.763 70.528C170.091 71.44 169.755 72.844 169.755 74.74H177.315ZM191.891 85.36C190.091 85.36 188.651 84.832 187.571 83.776C186.491 82.72 185.951 81.328 185.951 79.6V69.52H183.251V67.36L187.931 62.68H189.551V67H194.051V69.52H189.551V79.6C189.551 80.656 189.791 81.46 190.271 82.012C190.751 82.564 191.411 82.84 192.251 82.84C192.971 82.84 193.679 82.6 194.375 82.12C194.687 81.904 194.999 81.664 195.311 81.4H195.671L196.931 83.56C196.403 83.968 195.923 84.268 195.491 84.46C194.339 85.06 193.139 85.36 191.891 85.36ZM218.727 85.36C215.727 85.36 213.411 84.328 211.779 82.264C210.171 80.2 209.367 76.912 209.367 72.4C209.367 67.912 210.159 64.636 211.743 62.572C213.327 60.484 215.535 59.44 218.367 59.44C220.071 59.44 221.619 59.776 223.011 60.448C223.683 60.76 224.235 61.084 224.667 61.42L223.407 63.58H223.047C222.687 63.316 222.279 63.052 221.823 62.788C220.767 62.236 219.735 61.96 218.727 61.96C214.887 61.96 212.967 65.44 212.967 72.4C212.967 76.144 213.495 78.82 214.551 80.428C215.631 82.036 217.143 82.84 219.087 82.84C220.143 82.84 221.175 82.576 222.183 82.048C222.687 81.76 223.095 81.484 223.407 81.22H223.767L225.027 83.38C224.619 83.716 224.067 84.052 223.371 84.388C222.027 85.036 220.479 85.36 218.727 85.36ZM228.614 85V60.88L229.694 59.8H232.214V85H228.614ZM239.414 64.12C238.79 64.12 238.274 63.916 237.866 63.508C237.458 63.1 237.254 62.584 237.254 61.96C237.254 61.336 237.458 60.82 237.866 60.412C238.274 60.004 238.79 59.8 239.414 59.8C240.038 59.8 240.554 60.004 240.962 60.412C241.37 60.82 241.574 61.336 241.574 61.96C241.574 62.584 241.37 63.1 240.962 63.508C240.554 63.916 240.038 64.12 239.414 64.12ZM237.614 85V67H241.214V85H237.614ZM246.614 67H249.134L249.494 69.16H249.674C249.938 68.776 250.358 68.356 250.934 67.9C252.11 67.06 253.43 66.64 254.894 66.64C256.694 66.64 258.158 67.216 259.286 68.368C260.438 69.496 261.014 70.96 261.014 72.76V85H257.414V72.76C257.414 71.752 257.09 70.936 256.442 70.312C255.818 69.664 255.002 69.34 253.994 69.34C253.106 69.34 252.206 69.7 251.294 70.42C250.91 70.756 250.55 71.116 250.214 71.5V85H246.614V67ZM268.031 64.12C267.407 64.12 266.891 63.916 266.483 63.508C266.075 63.1 265.871 62.584 265.871 61.96C265.871 61.336 266.075 60.82 266.483 60.412C266.891 60.004 267.407 59.8 268.031 59.8C268.655 59.8 269.171 60.004 269.579 60.412C269.987 60.82 270.191 61.336 270.191 61.96C270.191 62.584 269.987 63.1 269.579 63.508C269.171 63.916 268.655 64.12 268.031 64.12ZM266.231 85V67H269.831V85H266.231ZM282.251 85.36C279.755 85.36 277.811 84.568 276.419 82.984C275.027 81.4 274.331 79.072 274.331 76C274.331 72.928 275.003 70.6 276.347 69.016C277.715 67.432 279.563 66.64 281.891 66.64C283.475 66.64 284.915 66.976 286.211 67.648C286.835 67.936 287.375 68.26 287.831 68.62L286.571 70.78H286.211C285.899 70.54 285.503 70.276 285.023 69.988C284.015 69.436 283.091 69.16 282.251 69.16C280.907 69.16 279.851 69.7 279.083 70.78C278.315 71.86 277.931 73.6 277.931 76C277.931 78.424 278.327 80.176 279.119 81.256C279.935 82.312 281.099 82.84 282.611 82.84C283.499 82.84 284.423 82.576 285.383 82.048C285.887 81.76 286.283 81.484 286.571 81.22H286.931L288.191 83.38C287.759 83.74 287.219 84.076 286.571 84.388C285.323 85.036 283.883 85.36 282.251 85.36Z" fill="#0F380B"/>
<path d="M100.936 15.4438C100.936 15.559 101.029 15.6531 101.146 15.6531C101.168 15.6531 101.19 15.6469 101.209 15.6406C101.343 15.7625 101.584 15.8511 101.853 15.9468C102.322 16.1152 102.854 16.305 102.966 16.7268C103.151 17.4178 103.975 18.3298 104.232 18.6017C104.228 18.604 104.225 18.6063 104.224 18.6079C104.233 18.6134 104.243 18.6188 104.255 18.6259L104.256 18.6282C104.231 18.6602 104.207 18.6946 104.188 18.7309C104.162 18.7638 104.143 18.8274 104.134 18.863C104.115 18.9262 104.101 18.9911 104.101 19.061C104.101 19.4457 104.414 19.7586 104.801 19.7586C105.035 19.7586 105.24 19.6434 105.368 19.4692V19.4703C105.368 19.4703 106.952 21.4108 108.033 21.5666C109.307 21.9669 108.847 26.3083 109.471 26.4149C110.096 26.5216 111.81 24.2515 108.366 20.9046C108.984 20.1632 115.627 28.0429 119.05 25.9138C120.048 25.5818 119.906 24.494 119.224 23.5891C118.543 22.6837 119.185 20.9827 119.478 18.9594C119.075 14.7606 113.457 14.5704 110.257 18.6341C108.83 20.1523 107.476 19.9152 107.476 19.9152C107.476 19.9152 112.736 16.3597 114.761 14.9442C116.785 13.5295 114.329 10.14 114.179 9.51662C114.028 8.89442 114.661 3.84805 113.742 3.62541C104.773 7.81953 106.18 19.0579 106.18 19.0579L105.476 18.879C105.396 18.581 105.127 18.3599 104.801 18.3599C104.684 18.3599 104.575 18.3923 104.478 18.4443C104.301 18.1662 103.826 17.342 103.71 16.3812C103.598 15.4356 102.743 14.9356 102.355 14.7556C102.355 14.7524 102.355 14.7493 102.355 14.747C102.355 14.6313 102.262 14.5376 102.146 14.5376C102.03 14.5376 101.935 14.6306 101.935 14.747C101.935 14.8622 102.03 14.9563 102.146 14.9563C102.223 14.9563 102.291 14.911 102.326 14.847C102.706 15.0247 103.512 15.5024 103.617 16.3929C103.735 17.3713 104.217 18.2087 104.399 18.4962C104.399 18.4966 104.398 18.4974 104.398 18.4974C104.385 18.5067 104.372 18.5138 104.361 18.5224C104.36 18.5216 104.358 18.5212 104.357 18.5204C104.341 18.5294 104.329 18.5384 104.315 18.5481C104.078 18.297 103.238 17.3713 103.061 16.7022C102.933 16.2312 102.378 16.032 101.886 15.8558C101.649 15.7719 101.423 15.6898 101.298 15.5887C101.335 15.5504 101.357 15.4992 101.357 15.4422C101.357 15.3266 101.262 15.2325 101.146 15.2325C101.03 15.2329 100.937 15.3293 100.936 15.4438Z" fill="#0F380B"/>
<path d="M74.0538 64.6506C74.0538 66.7988 75.82 68.5564 77.9788 68.5564H94.5587C96.7175 68.5564 98.4837 70.3141 98.4837 72.4623V88.9615C98.4837 91.1097 100.25 92.8673 102.409 92.8673H110.846C113.004 92.8673 114.771 91.1097 114.771 88.9615V72.4623C114.771 70.3141 116.537 68.5564 118.696 68.5564H135.276C137.434 68.5564 139.201 66.7988 139.201 64.6506V56.2549C139.201 54.1067 137.434 52.3491 135.276 52.3491H118.696C116.537 52.3491 114.771 50.5914 114.771 48.4432V31.9441C114.771 29.7959 113.004 28.0382 110.846 28.0382H102.409C100.25 28.0382 98.4837 29.7959 98.4837 31.9441V48.4432C98.4837 50.5914 96.7175 52.3491 94.5587 52.3491H77.9788C75.82 52.3491 74.0538 54.1067 74.0538 56.2549V64.6506Z" fill="#0F380B"/>
<path fill-rule="evenodd" clip-rule="evenodd" d="M34.0451 87.4519C34.1903 86.4824 34.4042 85.5173 34.469 84.5424C34.7837 79.7991 34.9042 75.0378 35.4027 70.3153C35.7234 67.2761 37.1313 64.517 38.7806 61.9282C40.1794 59.7327 42.0214 58.0462 44.3933 56.9029C45.782 56.2339 47.1389 55.4734 48.4247 54.6254C50.0131 53.5783 50.8676 52.0608 50.6898 50.1138C50.229 45.0619 51.7374 40.5905 54.3966 36.3354C55.2499 34.9704 55.3967 33.174 55.9014 31.5859C56.2366 30.5313 56.6346 29.4967 57.0047 28.453C57.1814 28.4315 57.3576 28.4101 57.5342 28.3882C57.9051 29.1041 58.3161 29.8033 58.6352 30.5415C58.939 31.2446 59.0238 32.0706 59.4386 32.687C59.7369 33.1307 60.4682 33.6302 60.9215 33.5603C62.2285 33.36 63.1513 33.8783 63.961 34.7258C65.0522 35.8683 66.263 36.7112 67.8499 37.101C69.3626 37.4732 69.3759 38.8985 69.1577 40.0066C68.8947 41.3439 68.2098 42.5993 67.7023 43.9023C70.6516 45.2596 74.4682 43.8738 75.6575 40.8206C77.189 36.8873 79.5546 33.467 82.1024 30.1493C82.2676 29.9341 82.4572 29.7392 82.6578 29.5549C84.4664 27.8894 85.5552 27.855 87.1252 29.3799C87.1252 29.8341 87.1252 30.2884 87.1252 30.7426C84.7702 32.1761 83.7206 34.2704 82.8348 36.753C81.5289 40.4128 80.125 44.1011 78.1958 47.455C76.7812 49.9134 74.6268 52.0358 72.4955 53.9751C70.3831 55.898 69.0172 57.8751 68.6337 60.835C68.255 63.7597 67.1363 66.6078 66.179 69.4353C64.1761 75.3495 63.8868 81.3239 65.1837 87.4101C65.3877 88.367 65.7485 89.0337 66.7018 89.4712C67.6764 89.9188 68.8983 90.5258 68.6895 91.7772C68.4779 93.0431 67.0857 92.8654 66.0974 93.1001C63.6992 93.6696 61.9279 92.8974 60.77 90.7082C60.4038 90.016 59.9391 89.3751 59.2129 88.7763C59.2129 89.3833 59.2322 89.9903 59.209 90.5965C59.1525 92.083 58.5265 92.8939 57.0573 93.1345C55.4877 93.3911 53.8977 93.6383 52.3128 93.6629C47.6601 93.7344 43.0054 93.72 38.3516 93.6911C26.0585 93.6145 17.1899 85.138 16.7566 72.8787C16.6239 69.1275 16.9544 65.3583 17.0997 61.5982C17.2547 57.5849 16.6514 53.8029 13.7893 50.7098C11.5065 48.2429 8.84459 46.7161 5.27559 47.5839C5.17668 47.4851 5.07738 47.3863 4.97807 47.2875C5.88004 45.854 6.78279 44.4202 7.73656 42.9043C7.81585 42.9551 7.62823 42.8344 7.3892 42.6809C8.54237 41.19 10.132 40.2206 11.8743 40.0976C14.893 39.8847 18.0314 39.6386 20.9591 40.2148C26.9286 41.3896 31.3666 47.2766 31.5731 53.3396C31.7179 57.59 30.4851 61.5833 29.5254 65.6357C28.2694 70.9371 27.672 76.2842 28.8173 81.6723C29.4061 84.442 30.7351 86.7636 33.7322 87.646C33.8362 87.5819 33.9406 87.5171 34.0451 87.4519Z" fill="#0F380B"/>
</svg>
